# xmcd
#
# Track frame offsets:
#	150
#	24463
#	58463
#	74120
#	106979
#	128396
#	158585
#	173407
#	200951
#	219629
#
# Disc length: 3254 seconds
#
# Revision: 1
# Processed by: cddbd v1.5.1PL2 Copyright (c) Steve Scherf et al.
# Submitted via: audiograbber 1.81.02
#
DISCID=910cb40a
DTITLE=Various Artist - Gospels TOP 20 - Volume2 CD1
DYEAR=2005
DGENRE=Gospel
TTITLE0=Fred Hammond - Let the Praise begin
TTITLE1=Yolanda Adams - Just a Prayer away
TTITLE2=Al Green - The Lord will make a way
TTITLE3=Lee Williams - Ive learned to lean
TTITLE4=John P. Kee - Wash me
TTITLE5=Dottie Peoples - Its so hard to get along
TTITLE6=Donald Lawrence - Stranger
TTITLE7=Aretha Franklin - What a friend we have in Jesus
TTITLE8=The Winans - Tomorrow
TTITLE9=Rev. Milton Brunson - My mind is made up
EXTD=www.gerth.de
EXTT0=
EXTT1=
EXTT2=
EXTT3=
EXTT4=
EXTT5=
EXTT6=
EXTT7=
EXTT8=
EXTT9=
PLAYORDER=
